<?xml version="1.0" encoding="UTF-8"?>
<svg id="Layer_1" xmlns="http://www.w3.org/2000/svg" version="1.1" viewBox="205 443 665 235" width="665" height="235">
  <defs>
    <style>
      .st0 { fill: #ece8e2; }
      .st1 { fill: #fe5722; }
    </style>
  </defs>
  <g>
    <path class="st1" d="M294.02,492.45c3.56,3.47,9.52.47,12.06-2.89,3.82-5.06,3.93-12.01,2.36-17.92,1.1.02,3.42,2.72,3.83,3.23,8.37,10.26,11.96,28.24,11.21,41.22-.91,15.64-11.8,34.87-8.55,49.53,2.99,13.51,18.87,13.24,21.99.37,1.94-8.02-.29-17.88.18-26.25.83-14.56,6.76-25.43,17.31-35.07,6.77-6.19,17.12-11.81,16.4-22.55.94-.2,1.46.55,1.85,1.13,2.91,4.26,1.65,11.46-.94,15.72.39.33,1.55-.67,1.91-.94,5.89-4.35,14.34-11.88,17.74-18.35,3.74-7.12,3.66-14.48.38-21.72,3.73.6,7.06,3.93,9.55,6.62,17.52,18.87,24.61,55.09,25.98,80.17.39,7.23,1.32,21.78-.5,28.25-4.18,14.87-25.13,15.65-30.24,1.16-2.8-7.93-.38-21.1-1.13-29.86-1.34-15.6-21.89-16.27-23.25.91-.89,11.3,1.39,23.19-1.12,34.42-6.96,31.14-43.02,42.54-69.73,27.87-17.14-9.41-24.24-25.49-25.18-44.51-.63-12.64,1.63-29.36-.21-41.26-2.06-13.28-20.17-14.68-22.51-1.07-.43,2.52,0,4.89-.02,7.22-.28,19.63,1.17,40.83,0,60.19-1.3,21.3-21.81,25.84-31.03,12.48-2.51-3.63-3.56-8.05-3.42-12.47.8-24.44-1.78-50.2-.17-74.31.71-10.55,4.93-22.36,9.77-31.68,4.1-7.91,10.62-15.02,11.62-24.14,4.03,5.13,2.18,12.92.45,18.68,10.48-11,28.72-26.86,27.76-43.51-.22-3.8-1.73-7.28-3.17-10.71,15.11,7.19,25.63,25.67,26.85,42.15.49,6.68-1.63,19.89.37,25.15.24.63,1.17,2.28,1.61,2.72Z"/>
    <path class="st1" d="M397.11,587.05c14.6-1.39,21.87,13.26,14.86,25.81-10.29,18.41-38.44,35.92-58.46,41.28-29.09,7.79-69.53,2.53-92.66-17.99-9-7.98-11.3-21.8.09-28.64,11.76-7.06,19.56,2.07,28.98,7.29,29.74,16.48,65.04,10.19,88.8-13.34,5.47-5.42,9.86-13.6,18.38-14.41Z"/>
  </g>
  <g>
    <path class="st0" d="M542.29,524.11c-3.01-8.32-8.32-14.75-15.78-19.1-7.38-4.29-17.75-6.46-30.84-6.46s-23.48,2.2-30.85,6.54c-7.45,4.4-12.76,10.82-15.77,19.09-2.94,8.08-4.42,18.02-4.42,29.55s1.45,21.4,4.33,29.33c2.95,8.13,8.24,14.37,15.72,18.51,7.36,4.09,17.79,6.16,30.99,6.16s23.6-1.99,30.95-5.92c7.5-4,12.8-10.16,15.76-18.3,2.87-7.94,4.33-17.95,4.33-29.78s-1.5-21.5-4.42-29.62ZM495.67,593.74c-9.1,0-16.06-1.49-20.68-4.41-4.6-2.91-7.65-7.15-9.34-12.98-1.75-6-2.63-13.6-2.63-22.61s.91-16.83,2.72-22.97c1.73-5.91,4.92-10.46,9.47-13.54,4.61-3.11,11.5-4.68,20.46-4.68s15.84,1.57,20.45,4.68c4.55,3.08,7.74,7.65,9.48,13.6,1.8,6.2,2.72,13.9,2.72,22.9s-.89,17.06-2.64,23.06c-1.68,5.81-4.73,9.98-9.31,12.73-4.62,2.8-11.59,4.22-20.7,4.22Z"/>
    <path class="st0" d="M650.28,509.1v88.22c0,4.93-4,8.93-8.93,8.93h-14.69c-3.34,0-6.4-1.86-7.93-4.83l-45.02-87.23h-.65v83.14c0,4.93-4,8.93-8.93,8.93h0c-4.93,0-8.93-4-8.93-8.93v-88.22c0-4.93,4-8.93,8.93-8.93h15.2c3.36,0,6.44,1.89,7.96,4.88l44.32,87.19h.81v-83.15c0-4.93,4-8.93,8.93-8.93h0c4.93,0,8.93,4,8.93,8.93Z"/>
    <path class="st0" d="M725.93,500.18h-26.78c-2.05,0-3.86,1.31-4.5,3.25l-32.01,96.58c-1.02,3.07,1.27,6.24,4.5,6.24h8.06c2.03,0,3.84-1.29,4.49-3.22l6.64-19.55c.65-1.92,2.46-3.22,4.49-3.22h43.28c2.03,0,3.84,1.29,4.49,3.22l6.64,19.55c.65,1.92,2.46,3.22,4.49,3.22h8.06c3.23,0,5.52-3.16,4.51-6.23l-31.84-96.58c-.64-1.95-2.46-3.26-4.51-3.26ZM693.7,560.03l14.25-43.04c.64-1.94,2.46-3.25,4.5-3.25h0c2.05,0,3.86,1.31,4.5,3.25l14.25,43.04c1.02,3.07-1.27,6.24-4.5,6.24h-28.5c-3.23,0-5.52-3.17-4.5-6.24Z"/>
    <path class="st0" d="M844.7,572.26c-2.38-4.16-.86-9.35,3.24-11.82,3.29-1.99,5.98-4.44,8.05-7.34,3.85-5.41,5.81-12.14,5.81-20.01s-1.61-13.81-4.78-18.68c-3.19-4.9-7.98-8.55-14.26-10.85-6.11-2.23-13.72-3.38-22.64-3.38h-39.33c-4.79,0-8.66,3.88-8.66,8.66v88.74c0,4.79,3.88,8.66,8.66,8.66h.53c4.79,0,8.66-3.88,8.66-8.66v-21.72c0-4.79,3.88-8.66,8.66-8.66h18.45c3.13,0,6.02,1.69,7.55,4.42l16.99,30.21c1.53,2.73,4.42,4.42,7.55,4.42h0c6.65,0,10.82-7.19,7.52-12.96l-12.01-21.02ZM789.97,522.7c0-4.79,3.88-8.66,8.66-8.66h21.47c8.05,0,14.03,1.61,17.77,4.78,3.71,3.16,5.51,7.87,5.51,14.42,0,3.88-.73,7.41-2.17,10.48-1.42,2.98-3.72,5.28-7.06,6.99-3.4,1.74-8.06,2.63-13.88,2.63h-21.64c-4.79,0-8.66-3.88-8.66-8.66v-21.98Z"/>
  </g>
</svg>
